<svg xmlns="http://www.w3.org/2000/svg" viewBox="0 0 300 480" width="100%" height="100%">
  <g id="real-estate-key-logo">
    <path d="M 145 25
             L 155 25
             L 200 65
             C 255 70, 280 110, 275 160
             C 270 210, 225 225, 200 220
             L 200 265
             L 180 265
             L 180 290
             L 172 300
             L 180 310
             L 180 325
             L 172 335
             L 180 345
             L 180 360
             L 172 370
             L 180 380
             L 180 415
             L 150 440
             L 150 235
             L 120 235
             L 120 265
             L 100 265
             L 100 220
             C 75 225, 30 210, 25 160
             C 20 110, 45 70, 100 65
             Z" fill="#4E89F4"/>

    <path d="M 120 235
             L 150 235
             L 150 440
             L 120 415
             Z" fill="#3B394A"/>

    <path d="M 150 85
             L 205 125
             L 205 180
             L 191 180
             L 191 135
             L 173 135
             L 173 180
             L 159 180
             L 159 100
             L 141 100
             L 141 180
             L 127 180
             L 127 135
             L 109 135
             L 109 180
             L 95 180
             L 95 125
             Z" fill="#FFFFFF"/>
  </g>
</svg>
